<?xml version="1.0" standalone="no"?> <!DOCTYPE svg PUBLIC "-//W3C//DTD SVG 20010904//EN" "http://www.w3.org/TR/2001/REC-SVG-20010904/DTD/svg10.dtd"> <svg version="1.0" xmlns="http://www.w3.org/2000/svg" width="600.000000pt" height="400.000000pt" viewBox="0 0 600.000000 400.000000" preserveAspectRatio="xMidYMid meet"> <g transform="translate(0.000000,400.000000) scale(0.050000,-0.050000)" fill="#1a1953" stroke="none"> <path d="M8155 5115 c-62 -94 -255 -510 -255 -548 0 -4 35 -7 78 -7 81 0 157 -47 163 -100 8 -70 -7 -105 -130 -293 l-130 -197 53 -7 c417 -52 633 576 279 811 l-85 56 32 165 c18 91 30 165 28 165 -2 0 -17 -20 -33 -45z"/> <path d="M2646 4859 c-189 -40 -226 -123 -226 -508 l0 -291 129 0 130 0 5 285 c6 270 8 285 46 285 38 0 40 -15 46 -285 l5 -285 130 0 129 0 0 290 c0 271 2 290 38 290 55 0 62 -36 62 -320 l0 -256 105 -8 c143 -12 135 -31 135 320 0 421 -37 484 -279 484 -65 0 -112 -12 -144 -38 -42 -35 -50 -36 -81 -9 -45 41 -152 62 -230 46z"/> <path d="M4522 4860 c-195 -47 -242 -146 -242 -512 l0 -282 114 -12 c141 -15 146 -12 146 97 0 88 1 89 70 89 70 0 70 0 70 -90 l0 -90 130 0 130 0 3 195 c6 342 1 404 -37 470 -66 113 -233 172 -384 135z m158 -331 c0 -88 0 -89 -70 -89 -82 0 -110 156 -36 197 63 35 106 -8 106 -108z"/> <path d="M7777 4856 c-323 -86 -429 -534 -178 -756 l79 -70 -48 -189 c-26 -104 -45 -193 -41 -197 9 -8 244 385 319 531 l50 100 -93 11 c-196 22 -205 100 -45 365 152 252 151 257 -43 205z"/> <path d="M929 4822 c-437 -198 -215 -862 263 -788 201 31 252 96 167 214 l-65 90 -50 -39 c-123 -97 -282 -10 -283 154 -2 156 183 242 297 139 36 -33 144 72 150 145 7 100 -319 158 -479 85z"/> <path d="M1678 4813 c-289 -152 -290 -586 0 -731 346 -173 739 117 643 474 -68 253 -399 386 -643 257z m288 -196 c69 -37 93 -80 93 -173 2 -174 -179 -251 -287 -122 -130 154 23 386 194 295z"/> <path d="M3660 4825 c-139 -70 -160 -132 -160 -468 l0 -297 129 0 130 0 5 283 c6 308 17 336 121 310 107 -27 82 -142 -36 -164 -67 -13 -96 -149 -43 -202 40 -40 246 20 318 93 256 256 -120 617 -464 445z"/> <path d="M5264 4816 c-288 -139 -293 -590 -9 -733 155 -77 359 -67 474 25 l58 46 -71 92 c-62 82 -73 88 -100 61 -56 -55 -182 -58 -243 -4 -173 150 6 411 209 306 l67 -34 66 76 c79 92 77 104 -35 163 -114 61 -294 61 -416 2z"/> <path d="M5860 4740 l0 -120 110 0 110 0 0 -290 0 -290 85 0 c182 1 175 -11 175 302 l0 278 111 0 111 0 -6 115 -6 115 -345 5 -345 6 0 -121z"/> <path d="M6655 4849 c-8 -9 -15 -189 -15 -400 l0 -385 115 -8 c147 -11 145 -13 145 113 l0 106 149 9 c341 22 467 381 187 529 -70 37 -551 67 -581 36z m444 -238 c57 -68 -27 -144 -142 -128 -38 6 -48 21 -53 82 l-6 75 88 0 c54 0 99 -12 113 -29z"/> <path d="M8480 4839 c0 -39 205 -749 223 -771 16 -21 39 -22 210 -12 62 4 63 5 119 223 32 120 60 215 64 211 4 -4 30 -95 57 -203 28 -108 59 -207 70 -220 17 -21 251 -20 272 1 7 7 225 758 225 777 0 8 -62 15 -138 15 l-137 0 -47 -240 c-53 -276 -57 -276 -118 -20 -64 268 -61 263 -196 256 l-114 -6 -57 -236 c-32 -129 -61 -233 -65 -229 -3 3 -25 96 -48 206 -23 109 -47 215 -53 234 -11 40 -267 54 -267 14z"/> <path d="M9813 4847 c-18 -19 -17 -787 2 -788 8 -1 146 -3 305 -5 l290 -4 6 105 6 105 -181 0 c-180 0 -181 0 -181 50 0 49 3 50 160 50 l160 0 0 89 0 89 -155 6 c-143 6 -155 9 -161 51 -7 44 -2 45 175 45 l181 0 0 110 0 110 -297 0 c-163 0 -302 -6 -310 -13z"/> <path d="M10540 4462 l0 -402 130 0 130 0 0 290 0 290 78 0 c128 0 168 -118 47 -136 -81 -12 -78 -137 6 -306 l73 -148 138 -1 c162 -2 159 -10 60 164 l-78 137 46 40 c136 118 117 329 -38 422 -50 29 -115 38 -327 45 l-265 8 0 -403z"/> <path d="M760 3540 l0 -160 110 0 c61 0 110 9 110 20 0 11 -36 20 -80 20 -72 0 -80 5 -80 50 0 44 9 50 70 50 88 0 92 35 5 44 -109 10 -105 96 4 96 44 0 81 9 81 20 0 11 -49 20 -110 20 l-110 0 0 -160z"/> <path d="M1060 3540 l0 -160 100 0 c55 0 100 9 100 20 0 11 -31 20 -70 20 l-70 0 0 140 c0 111 -6 140 -30 140 -24 0 -30 -31 -30 -160z"/> <path d="M1320 3540 l0 -160 110 0 c124 0 151 34 35 44 -110 9 -125 96 -16 96 89 0 94 35 6 44 -109 10 -105 96 4 96 44 0 81 9 81 20 0 11 -49 20 -110 20 l-110 0 0 -160z"/> <path d="M1612 3668 c-21 -55 -13 -239 12 -264 41 -41 211 -30 235 15 29 53 27 61 -19 61 -22 0 -40 -13 -40 -30 0 -20 -20 -30 -60 -30 l-60 0 0 120 c0 130 67 173 131 85 32 -43 77 -10 58 42 -19 47 -239 48 -257 1z"/> <path d="M1920 3681 c0 -10 20 -21 45 -25 41 -5 46 -18 51 -141 9 -198 64 -194 64 5 0 136 1 140 50 140 28 0 50 9 50 20 0 11 -57 20 -130 20 -71 0 -130 -8 -130 -19z"/> <path d="M2240 3541 c0 -148 3 -161 40 -161 31 0 40 13 40 60 0 40 10 60 29 60 17 0 44 -27 61 -60 18 -35 47 -60 70 -60 37 0 37 2 4 60 -28 49 -29 64 -8 77 17 11 24 46 20 95 l-6 78 -125 6 -125 6 0 -161z m200 69 c0 -42 -9 -50 -60 -50 -51 0 -60 8 -60 50 0 42 9 50 60 50 51 0 60 -8 60 -50z"/> <path d="M2600 3540 c0 -129 6 -160 30 -160 24 0 30 31 30 160 0 129 -6 160 -30 160 -24 0 -30 -31 -30 -160z"/> <path d="M2752 3668 c-7 -17 -12 -75 -12 -128 0 -149 9 -160 128 -160 103 0 152 24 152 74 0 14 -18 26 -40 26 -22 0 -40 -13 -40 -30 0 -20 -20 -30 -60 -30 l-60 0 0 120 0 120 60 0 c33 0 60 -9 60 -20 0 -11 19 -20 42 -20 30 0 39 9 30 32 -7 17 -12 35 -12 40 0 27 -237 5 -248 -24z"/> <path d="M3126 3576 c-24 -69 -49 -142 -57 -161 -9 -25 -4 -35 19 -35 19 0 38 14 45 30 7 20 38 30 89 30 56 0 78 -8 78 -30 0 -17 18 -30 39 -30 65 0 -54 308 -121 316 -42 5 -53 -9 -92 -120z m121 -1 c19 -70 16 -75 -36 -75 -46 0 -48 4 -28 60 25 71 48 77 64 15z"/> <path d="M3440 3540 l0 -160 110 0 c124 0 151 34 35 44 l-75 6 -6 135 c-9 212 -64 190 -64 -25z"/> <path d="M3888 3648 c-19 -76 13 -116 104 -128 61 -8 78 -19 78 -50 0 -54 -84 -66 -120 -17 -21 29 -33 32 -52 13 -48 -48 17 -89 130 -82 l102 6 0 80 c0 78 -2 80 -80 90 -106 13 -134 100 -31 100 33 0 61 -9 61 -20 0 -11 14 -20 31 -20 20 0 29 14 25 35 -12 67 -231 61 -248 -7z"/> <path d="M4228 3673 c-5 -15 -7 -85 -4 -155 l6 -128 114 -6 c146 -8 157 12 140 261 -5 63 -233 88 -256 28z m188 -128 c-6 -113 -7 -115 -66 -115 -59 0 -60 2 -66 115 l-6 115 72 0 72 0 -6 -115z"/> <path d="M4580 3540 l0 -160 100 0 c55 0 100 9 100 20 0 11 -31 20 -70 20 l-70 0 0 140 c0 111 -6 140 -30 140 -24 0 -30 -31 -30 -160z"/> <path d="M4844 3545 l6 -155 120 0 120 0 6 155 c5 127 0 155 -24 155 -23 0 -32 -31 -36 -135 l-6 -135 -60 0 -60 0 -6 135 c-4 104 -13 135 -36 135 -24 0 -29 -28 -24 -155z"/> <path d="M5160 3680 c0 -11 23 -20 50 -20 49 0 50 -4 50 -140 0 -199 55 -203 64 -5 5 123 10 136 51 141 96 14 38 44 -85 44 -73 0 -130 -9 -130 -20z"/> <path d="M5482 3565 c7 -161 13 -185 50 -185 22 0 28 37 28 160 0 149 -3 160 -42 160 -39 0 -41 -10 -36 -135z"/> <path d="M5649 3674 c-6 -16 -8 -86 -5 -156 l6 -128 124 -6 c145 -7 153 5 142 197 l-6 109 -125 6 c-93 4 -128 -1 -136 -22z m191 -135 l0 -122 -65 7 c-61 6 -65 11 -71 93 -9 118 4 143 75 143 l61 0 0 -121z"/> <path d="M6000 3541 c0 -202 54 -241 64 -46 l6 115 66 -115 c102 -175 144 -162 144 45 0 199 -54 240 -64 48 l-6 -112 -61 107 c-100 176 -149 163 -149 -42z"/> <path d="M6374 3688 c-65 -66 0 -168 106 -168 65 0 86 -21 68 -68 -16 -41 -105 -42 -121 -2 -18 49 -71 36 -63 -15 5 -41 17 -45 126 -45 l120 0 0 80 c0 79 -1 80 -85 91 -97 13 -115 25 -98 68 13 34 113 43 113 11 0 -11 19 -20 41 -20 29 0 40 11 35 35 -7 36 -210 64 -242 33z"/> </g> </svg>