<svg width="95" height="29" viewBox="0 0 95 29" fill="none" xmlns="http://www.w3.org/2000/svg">
<path d="M91.4776 26.6332C90.3035 26.6332 89.3704 26.3629 88.6785 25.8222C87.9866 25.2816 87.6092 24.5367 87.5463 23.5876H89.6535C89.7059 23.9961 89.8841 24.3084 90.1881 24.5247C90.5026 24.7289 90.9325 24.8311 91.4776 24.8311C91.9703 24.8311 92.3267 24.753 92.5469 24.5968C92.7775 24.4286 92.8928 24.1943 92.8928 23.8939C92.8928 23.6657 92.8247 23.4915 92.6884 23.3713C92.5626 23.2392 92.3267 23.131 91.9808 23.0469L90.6913 22.7406C89.7374 22.5123 89.035 22.1699 88.5842 21.7134C88.1334 21.2448 87.908 20.6441 87.908 19.9112C87.908 19.0222 88.2068 18.3313 88.8043 17.8388C89.4019 17.3342 90.2353 17.0819 91.3046 17.0819C92.3634 17.0819 93.2073 17.3282 93.8363 17.8207C94.4653 18.3013 94.8113 18.9741 94.8742 19.8391H92.767C92.7251 19.5268 92.5783 19.2925 92.3267 19.1363C92.0751 18.9681 91.7187 18.884 91.2574 18.884C90.8381 18.884 90.5236 18.9561 90.3139 19.1003C90.1148 19.2324 90.0152 19.4246 90.0152 19.6769C90.0152 19.8932 90.099 20.0674 90.2668 20.1996C90.4345 20.3197 90.7123 20.4278 91.1002 20.5239L92.5469 20.8663C93.3541 21.0586 93.9621 21.419 94.371 21.9476C94.7903 22.4642 95 23.077 95 23.7858C95 24.6869 94.6907 25.3897 94.0722 25.8943C93.4642 26.3869 92.5993 26.6332 91.4776 26.6332Z" fill="white"/>
<path d="M77.819 26.453V17.2621H80.1306V19.4246H80.1777V26.453H77.819ZM83.4014 26.453V20.7582C83.4014 20.2536 83.2861 19.8752 83.0554 19.6229C82.8353 19.3706 82.5103 19.2444 82.0805 19.2444C81.7136 19.2444 81.3833 19.3405 81.0898 19.5328C80.8067 19.725 80.5814 19.9893 80.4136 20.3257C80.2564 20.6621 80.1777 21.0586 80.1777 21.5151L79.9733 19.2985C80.2354 18.6257 80.618 18.0911 81.1212 17.6946C81.6349 17.2861 82.2639 17.0819 83.0082 17.0819C83.8993 17.0819 84.5807 17.3702 85.0525 17.9469C85.5242 18.5116 85.7601 19.2745 85.7601 20.2356V26.453H83.4014Z" fill="white"/>
<path d="M60.4713 26.4328V17.2419H62.83V26.4328H60.4713ZM60.3927 16.0164V13.097H62.9087V16.0164H60.3927Z" fill="white"/>
<path d="M57.7349 26.631C56.7075 26.631 55.9422 26.3487 55.439 25.784C54.9463 25.2073 54.7 24.3363 54.7 23.1709V15.1875L57.0587 14.1783V23.261C57.0587 23.6695 57.1583 23.9759 57.3575 24.1801C57.5567 24.3844 57.8659 24.4865 58.2853 24.4865C58.4425 24.4865 58.5893 24.4685 58.7256 24.4324C58.8618 24.3964 58.9981 24.3543 59.1344 24.3063V26.3607C58.9981 26.4448 58.8042 26.5109 58.5526 26.5589C58.3115 26.607 58.0389 26.631 57.7349 26.631ZM53.2061 19.2963V17.2419H59.1344V19.2963H53.2061Z" fill="white"/>
<path d="M50.5465 26.4328C50.4836 26.1685 50.4364 25.8861 50.4049 25.5858C50.384 25.2854 50.3735 24.937 50.3735 24.5405H50.3106V20.1974C50.3106 19.825 50.2005 19.5366 49.9804 19.3324C49.7707 19.1161 49.4562 19.008 49.0369 19.008C48.6385 19.008 48.3188 19.0861 48.0776 19.2423C47.847 19.3984 47.695 19.6267 47.6216 19.9271H45.3729C45.4778 19.0981 45.8499 18.4133 46.4894 17.8726C47.1289 17.332 48.0043 17.0617 49.1155 17.0617C50.2687 17.0617 51.1493 17.356 51.7573 17.9447C52.3653 18.5334 52.6693 19.3804 52.6693 20.4857V24.5405C52.6693 24.8409 52.6851 25.1473 52.7165 25.4596C52.7585 25.76 52.8213 26.0844 52.9052 26.4328H50.5465ZM47.7474 26.613C46.9507 26.613 46.3164 26.3847 45.8447 25.9282C45.3729 25.4596 45.1371 24.8409 45.1371 24.072C45.1371 23.219 45.4149 22.5342 45.9705 22.0176C46.5366 21.4889 47.3228 21.1465 48.3292 20.9903L50.6723 20.6119V22.1797L48.7224 22.5222C48.303 22.5942 47.9938 22.7264 47.7946 22.9186C47.5954 23.1108 47.4958 23.3752 47.4958 23.7116C47.4958 24.0119 47.5902 24.2402 47.7789 24.3964C47.9676 24.5526 48.2192 24.6307 48.5337 24.6307C49.0264 24.6307 49.4457 24.4805 49.7917 24.1801C50.1376 23.8677 50.3106 23.5073 50.3106 23.0988L50.5307 24.5405C50.3001 25.2254 49.9489 25.742 49.4772 26.0904C49.0054 26.4388 48.4288 26.613 47.7474 26.613Z" fill="white"/>
<path d="M39.5917 26.4328L36.431 17.2419H38.9627L41.4315 25.8201H40.1106L42.5637 17.2419H45.0325L41.8718 26.4328H39.5917Z" fill="white"/>
<path d="M31.9668 26.613C31.0862 26.613 30.3104 26.4148 29.6395 26.0183C28.979 25.6098 28.4601 25.0451 28.0827 24.3243C27.7158 23.5914 27.5323 22.7504 27.5323 21.8013C27.5323 20.8522 27.7158 20.0232 28.0827 19.3143C28.4601 18.6055 28.979 18.0529 29.6395 17.6564C30.3104 17.2599 31.0862 17.0617 31.9668 17.0617C32.8579 17.0617 33.6336 17.2599 34.2941 17.6564C34.965 18.0529 35.484 18.6055 35.8509 19.3143C36.2178 20.0232 36.4012 20.8522 36.4012 21.8013C36.4012 22.7504 36.2125 23.5914 35.8351 24.3243C35.4682 25.0451 34.9493 25.6098 34.2784 26.0183C33.6179 26.4148 32.8474 26.613 31.9668 26.613ZM31.9668 24.4865C32.3337 24.4865 32.6639 24.3783 32.9575 24.1621C33.2615 23.9458 33.5026 23.6395 33.6808 23.243C33.859 22.8345 33.9481 22.3479 33.9481 21.7833C33.9481 20.9543 33.7542 20.3175 33.3663 19.873C32.9889 19.4165 32.5224 19.1882 31.9668 19.1882C31.4112 19.1882 30.9394 19.4165 30.5515 19.873C30.1741 20.3295 29.9854 20.9663 29.9854 21.7833C29.9854 22.3479 30.0746 22.8345 30.2528 23.243C30.431 23.6395 30.6669 23.9458 30.9604 24.1621C31.2644 24.3783 31.5999 24.4865 31.9668 24.4865Z" fill="white"/>
<path d="M18.4254 26.4328V17.2419H20.7369V19.4045H20.7841V26.4328H18.4254ZM24.0077 26.4328V20.738C24.0077 20.2334 23.8924 19.855 23.6618 19.6027C23.4416 19.3504 23.1166 19.2242 22.6868 19.2242C22.3199 19.2242 21.9897 19.3204 21.6962 19.5126C21.4131 19.7048 21.1877 19.9691 21.02 20.3055C20.8627 20.6419 20.7841 21.0384 20.7841 21.4949L20.5797 19.2783C20.8418 18.6055 21.2244 18.0709 21.7276 17.6744C22.2413 17.2659 22.8703 17.0617 23.6146 17.0617C24.5057 17.0617 25.1871 17.35 25.6589 17.9267C26.1306 18.4914 26.3665 19.2543 26.3665 20.2154V26.4328H24.0077Z" fill="white"/>
<path d="M8.68939 26.4328V17.2419H11.001V19.4045H11.0481V26.4328H8.68939ZM14.2718 26.4328V20.738C14.2718 20.2334 14.1564 19.855 13.9258 19.6027C13.7057 19.3504 13.3807 19.2242 12.9509 19.2242C12.5839 19.2242 12.2537 19.3204 11.9602 19.5126C11.6771 19.7048 11.4517 19.9691 11.284 20.3055C11.1268 20.6419 11.0481 21.0384 11.0481 21.4949L10.8437 19.2783C11.1058 18.6055 11.4884 18.0709 11.9916 17.6744C12.5053 17.2659 13.1343 17.0617 13.8786 17.0617C14.7697 17.0617 15.4511 17.35 15.9229 17.9267C16.3946 18.4914 16.6305 19.2543 16.6305 20.2154V26.4328H14.2718Z" fill="white"/>
<path d="M4.53946 26.4328V13.4574H6.96111V26.4328H4.53946Z" fill="white"/>
<path d="M45.9077 13.1346V0H48.2954V13.1346H45.9077Z" fill="white"/>
<path d="M40.5876 13.317C39.6856 13.317 38.9003 13.1164 38.2318 12.715C37.5632 12.3015 37.0432 11.7299 36.6718 11.0002C36.311 10.2705 36.1306 9.43137 36.1306 8.48276C36.1306 7.52199 36.311 6.68283 36.6718 5.96529C37.0432 5.2356 37.5579 4.67008 38.2158 4.26874C38.8738 3.85525 39.6379 3.6485 40.508 3.6485C41.3464 3.6485 42.0733 3.84309 42.6888 4.23226C43.3043 4.62143 43.7818 5.16263 44.1214 5.85584C44.461 6.54905 44.6308 7.36389 44.6308 8.30033C44.6308 8.49492 44.6255 8.67734 44.6149 8.84761C44.6042 9.00571 44.5883 9.15773 44.5671 9.30367H37.5314V7.49766H42.641L42.2272 7.82603C42.2272 7.07201 42.068 6.51865 41.7496 6.16596C41.4419 5.80111 41.0174 5.61869 40.4762 5.61869C39.8501 5.61869 39.3619 5.86192 39.0117 6.34839C38.6722 6.83485 38.5024 7.56455 38.5024 8.53749C38.5024 9.48609 38.6722 10.1915 39.0117 10.6536C39.3619 11.1158 39.8819 11.3468 40.5717 11.3468C40.9537 11.3468 41.2827 11.2739 41.5586 11.1279C41.8345 10.982 42.0415 10.7448 42.1794 10.4165H44.4238C44.1585 11.3164 43.7022 12.0279 43.0549 12.5508C42.4182 13.0616 41.5958 13.317 40.5876 13.317Z" fill="white"/>
<path d="M31.5527 13.317C30.7038 13.317 29.9556 13.1103 29.3083 12.6968C28.661 12.2833 28.1516 11.7117 27.7802 10.982C27.4194 10.2523 27.239 9.41921 27.239 8.48276C27.239 7.54631 27.4194 6.71324 27.7802 5.98354C28.1516 5.25384 28.661 4.68224 29.3083 4.26874C29.9556 3.85525 30.7038 3.6485 31.5527 3.6485C32.2637 3.6485 32.9004 3.80052 33.4629 4.10456C34.0359 4.39644 34.5028 4.80386 34.8636 5.32681C35.2351 5.84976 35.4738 6.46392 35.5799 7.1693H33.2718C33.1551 6.71932 32.9429 6.37879 32.6351 6.14772C32.338 5.91665 31.9878 5.80111 31.5845 5.80111C31.2025 5.80111 30.8682 5.91057 30.5817 6.12948C30.3058 6.34839 30.0936 6.65851 29.945 7.05984C29.7964 7.46118 29.7221 7.93548 29.7221 8.48276C29.7221 9.03003 29.7964 9.50434 29.945 9.90567C30.0936 10.307 30.3058 10.6171 30.5817 10.836C30.8682 11.0549 31.2025 11.1644 31.5845 11.1644C31.9878 11.1644 32.338 11.0489 32.6351 10.8178C32.9429 10.5867 33.1551 10.2462 33.2718 9.79622H35.5799C35.4738 10.5016 35.2351 11.1158 34.8636 11.6387C34.5028 12.1617 34.0359 12.5752 33.4629 12.8792C32.9004 13.1711 32.2637 13.317 31.5527 13.317Z" fill="white"/>
<path d="M24.5409 13.1346L22.1373 9.04827L18.6831 3.83092H21.3573L23.5062 7.49766L27.2151 13.1346H24.5409ZM22.3283 7.35172L24.4772 3.83092H27.0877L23.4584 9.26718L22.3283 7.35172ZM23.2515 9.41312L20.9434 13.1346H18.3488L22.1213 7.49766L23.2515 9.41312Z" fill="white"/>
<path d="M14.3168 13.317C13.4148 13.317 12.6295 13.1164 11.961 12.715C11.2924 12.3015 10.7724 11.7299 10.401 11.0002C10.0402 10.2705 9.8598 9.43137 9.8598 8.48276C9.8598 7.52199 10.0402 6.68283 10.401 5.96529C10.7724 5.2356 11.2871 4.67008 11.9451 4.26874C12.603 3.85525 13.3671 3.6485 14.2372 3.6485C15.0756 3.6485 15.8025 3.84309 16.418 4.23226C17.0335 4.62143 17.511 5.16263 17.8506 5.85584C18.1902 6.54905 18.36 7.36389 18.36 8.30033C18.36 8.49492 18.3547 8.67734 18.3441 8.84761C18.3335 9.00571 18.3175 9.15773 18.2963 9.30367H11.2606V7.49766H16.3702L15.9564 7.82603C15.9564 7.07201 15.7972 6.51865 15.4788 6.16596C15.1711 5.80111 14.7466 5.61869 14.2054 5.61869C13.5793 5.61869 13.0911 5.86192 12.7409 6.34839C12.4014 6.83485 12.2316 7.56455 12.2316 8.53749C12.2316 9.48609 12.4014 10.1915 12.7409 10.6536C13.0911 11.1158 13.6111 11.3468 14.3009 11.3468C14.6829 11.3468 15.0119 11.2739 15.2878 11.1279C15.5637 10.982 15.7707 10.7448 15.9086 10.4165H18.153C17.8877 11.3164 17.4314 12.0279 16.7841 12.5508C16.1474 13.0616 15.325 13.317 14.3168 13.317Z" fill="white"/>
<path d="M2.00566 13.1346V11.1279H4.9664C5.49699 11.1279 5.89494 10.9637 6.16024 10.6354C6.43615 10.2948 6.57411 9.82662 6.57411 9.2307C6.57411 8.62262 6.42554 8.14223 6.12841 7.78954C5.84188 7.43685 5.42802 7.26051 4.88681 7.26051H2.00566V5.25384H4.75946C5.25822 5.25384 5.63495 5.12006 5.88964 4.8525C6.15493 4.57278 6.28758 4.16537 6.28758 3.63026C6.28758 3.09514 6.16024 2.69381 5.90555 2.42625C5.66148 2.14653 5.29537 2.00667 4.80722 2.00667H2.00566V0H5.33251C6.35126 0 7.17368 0.297961 7.79979 0.893882C8.42589 1.4898 8.73895 2.29855 8.73895 3.32013C8.73895 3.9647 8.6063 4.51806 8.341 4.9802C8.0757 5.44234 7.7202 5.79503 7.2745 6.03826C6.82879 6.2815 6.33003 6.40311 5.77821 6.40311L5.8578 6.02002C6.45207 6.02002 6.98797 6.16596 7.46551 6.45784C7.95366 6.74972 8.341 7.16322 8.62752 7.69833C8.91404 8.22128 9.05731 8.84153 9.05731 9.55906C9.05731 10.2766 8.90874 10.909 8.6116 11.4563C8.32508 11.9914 7.91652 12.4049 7.38592 12.6968C6.86594 12.9887 6.25044 13.1346 5.53944 13.1346H2.00566ZM0 13.1346V0H2.45136V13.1346H0Z" fill="white"/>
<path d="M70.8964 25.5871C71.0592 25.5871 71.2162 25.6468 71.3378 25.755C71.4594 25.8631 71.5371 26.0121 71.5561 26.1737L71.5608 26.2514V26.9157C71.5606 27.085 71.4957 27.2479 71.3795 27.371C71.2633 27.4941 71.1044 27.5682 70.9354 27.5782C70.7663 27.5881 70.5999 27.5331 70.4701 27.4244C70.3402 27.3157 70.2568 27.1616 70.2368 26.9934L70.2321 26.9157V26.2514C70.2321 26.0752 70.3021 25.9062 70.4267 25.7816C70.5513 25.6571 70.7202 25.5871 70.8964 25.5871ZM75.0903 24.1986L75.1528 24.2538L75.6178 24.7188C75.7369 24.8383 75.8061 24.9988 75.8113 25.1675C75.8164 25.3362 75.7572 25.5005 75.6455 25.6271C75.5339 25.7537 75.3783 25.8331 75.2102 25.8491C75.0422 25.8651 74.8744 25.8165 74.7409 25.7133L74.6784 25.6581L74.2134 25.1931C74.0988 25.0787 74.0299 24.9263 74.0197 24.7646C74.0096 24.603 74.0588 24.4432 74.1582 24.3153C74.2576 24.1874 74.4004 24.1002 74.5595 24.0702C74.7187 24.0401 74.8834 24.0693 75.0226 24.1521L75.0903 24.1986ZM67.5795 24.2538C67.6938 24.3682 67.7626 24.5204 67.7727 24.6818C67.7829 24.8433 67.7338 25.0029 67.6346 25.1307L67.5795 25.1931L67.1144 25.6581C66.9949 25.7773 66.8345 25.8465 66.6658 25.8516C66.4971 25.8568 66.3327 25.7975 66.2061 25.6859C66.0795 25.5743 66.0002 25.4186 65.9842 25.2506C65.9682 25.0826 66.0167 24.9148 66.1199 24.7812L66.1751 24.7188L66.6401 24.2538C66.7647 24.1292 66.9336 24.0593 67.1098 24.0593C67.2859 24.0593 67.4549 24.1292 67.5795 24.2538ZM65.5818 20.2725C65.7512 20.2727 65.914 20.3375 66.0371 20.4537C66.1603 20.57 66.2344 20.7288 66.2443 20.8979C66.2542 21.0669 66.1992 21.2333 66.0905 21.3632C65.9819 21.493 65.8277 21.5765 65.6596 21.5965L65.5818 21.6011H64.9175C64.7482 21.6009 64.5853 21.5361 64.4622 21.4199C64.3391 21.3036 64.265 21.1448 64.2551 20.9757C64.2451 20.8067 64.3001 20.6403 64.4088 20.5104C64.5175 20.3806 64.6717 20.2971 64.8398 20.2771L64.9175 20.2725H65.5818ZM76.8754 20.2725C77.0447 20.2727 77.2075 20.3375 77.3307 20.4537C77.4538 20.57 77.5279 20.7288 77.5378 20.8979C77.5477 21.0669 77.4927 21.2333 77.3841 21.3632C77.2754 21.493 77.1212 21.5765 76.9531 21.5965L76.8754 21.6011H76.211C76.0417 21.6009 75.8789 21.5361 75.7557 21.4199C75.6326 21.3036 75.5585 21.1448 75.5486 20.9757C75.5387 20.8067 75.5937 20.6403 75.7023 20.5104C75.811 20.3806 75.9652 20.2971 76.1333 20.2771L76.211 20.2725H76.8754ZM67.052 16.1603L67.1144 16.2154L67.5795 16.6805C67.6986 16.8 67.7678 16.9604 67.7729 17.1291C67.7781 17.2978 67.7188 17.4622 67.6072 17.5888C67.4956 17.7154 67.3399 17.7947 67.1719 17.8107C67.0039 17.8268 66.8361 17.7782 66.7026 17.675L66.6401 17.6198L66.1751 17.1548C66.0609 17.0403 65.9923 16.8881 65.9823 16.7267C65.9723 16.5653 66.0215 16.4058 66.1207 16.2781C66.2199 16.1504 66.3623 16.0633 66.5211 16.033C66.68 16.0028 66.8444 16.0315 66.9836 16.1138L67.052 16.1603ZM75.6178 16.2154C75.7322 16.3298 75.8009 16.482 75.811 16.6435C75.8212 16.8049 75.7721 16.9645 75.6729 17.0923L75.6178 17.1548L75.1528 17.6198C75.0332 17.739 74.8728 17.8081 74.7041 17.8133C74.5354 17.8184 74.371 17.7592 74.2444 17.6476C74.1179 17.5359 74.0385 17.3803 74.0225 17.2123C74.0065 17.0443 74.055 16.8764 74.1583 16.7429L74.2134 16.6805L74.6784 16.2154C74.803 16.0909 74.972 16.0209 75.1481 16.0209C75.3243 16.0209 75.4932 16.0909 75.6178 16.2154ZM70.8964 14.2935C71.0592 14.2936 71.2162 14.3533 71.3378 14.4614C71.4594 14.5696 71.5371 14.7185 71.5561 14.8801L71.5608 14.9579V15.6222C71.5606 15.7915 71.4957 15.9544 71.3795 16.0775C71.2633 16.2006 71.1044 16.2747 70.9354 16.2846C70.7663 16.2946 70.5999 16.2396 70.4701 16.1309C70.3402 16.0222 70.2568 15.8681 70.2368 15.6999L70.2321 15.6222V14.9579C70.2321 14.7817 70.3021 14.6127 70.4267 14.4881C70.5513 14.3635 70.7202 14.2935 70.8964 14.2935ZM70.8964 17.6152C71.5473 17.6151 72.1838 17.8063 72.7269 18.1649C73.27 18.5235 73.6958 19.0338 73.9514 19.6323C74.207 20.2308 74.2811 20.8913 74.1646 21.5316C74.048 22.1719 73.746 22.7638 73.2959 23.2339C72.8458 23.704 72.2675 24.0315 71.6329 24.1758C70.9982 24.3201 70.3352 24.2747 69.7261 24.0453C69.117 23.816 68.5888 23.4128 68.2069 22.8858C67.825 22.3588 67.6064 21.7312 67.5781 21.081L67.5748 20.9368L67.5781 20.7926C67.6153 19.9375 67.9811 19.1297 68.5994 18.5377C69.2176 17.9457 70.0405 17.6152 70.8964 17.6152Z" fill="white"/>
</svg>
