<?xml version="1.0" standalone="no"?> <!DOCTYPE svg PUBLIC "-//W3C//DTD SVG 20010904//EN" "http://www.w3.org/TR/2001/REC-SVG-20010904/DTD/svg10.dtd"> <svg version="1.0" xmlns="http://www.w3.org/2000/svg" width="600.000000pt" height="400.000000pt" viewBox="0 0 600.000000 400.000000" preserveAspectRatio="xMidYMid meet"> <g transform="translate(0.000000,400.000000) scale(0.100000,-0.100000)" fill="#c31f20" stroke="none"> <path d="M520 2554 c-45 -20 -68 -41 -91 -86 -17 -34 -19 -63 -19 -349 0 -291 1 -316 20 -354 39 -80 35 -80 468 -83 210 -2 382 1 382 5 0 4 -33 94 -73 198 l-72 190 -123 3 -123 3 41 -74 c22 -41 40 -77 40 -81 0 -3 -71 -5 -157 -4 l-158 3 -3 105 c-2 58 0 150 3 205 l7 100 321 -2 c177 -2 332 -3 345 -3 l22 0 0 -204 0 -205 -49 -3 -48 -3 45 -119 46 -118 78 4 c84 5 112 18 152 72 20 26 21 43 24 336 2 211 0 322 -8 351 -15 53 -64 104 -115 118 -26 7 -190 11 -480 11 -369 -1 -446 -3 -475 -16z"/> <path d="M1832 2556 c-46 -16 -97 -69 -110 -114 -8 -27 -12 -154 -12 -398 l0 -359 115 -2 115 -1 0 159 c0 156 0 159 23 164 12 3 184 4 382 3 l360 -3 3 -162 2 -163 116 0 115 0 -3 378 -3 377 -27 46 c-21 36 -39 51 -77 68 -48 20 -61 21 -508 20 -329 0 -467 -4 -491 -13z m868 -271 l0 -45 -375 0 -375 0 0 45 0 45 375 0 375 0 0 -45z"/> <path d="M3178 2556 c-61 -22 -89 -45 -110 -92 -17 -40 -19 -63 -16 -188 3 -131 5 -145 27 -178 30 -44 79 -77 128 -89 21 -5 219 -9 441 -9 l402 0 0 -40 0 -40 -500 0 -500 0 0 -120 0 -121 553 3 c531 3 553 4 586 23 69 41 76 59 79 228 2 91 -1 167 -7 189 -14 44 -67 93 -118 107 -24 7 -192 11 -445 11 l-408 0 0 45 0 45 460 0 460 0 0 120 0 120 -497 0 c-389 -1 -506 -4 -535 -14z"/> <path d="M4499 2560 c-44 -13 -74 -38 -100 -82 l-24 -43 0 -370 0 -370 112 -3 112 -3 3 158 3 158 373 3 372 2 0 -160 0 -160 120 0 120 0 0 365 c0 306 -2 372 -15 402 -21 50 -42 72 -90 94 -37 17 -74 19 -500 18 -253 0 -472 -4 -486 -9z m841 -272 l0 -48 -365 0 -365 0 0 45 0 45 338 2 c185 2 349 3 364 3 27 0 28 -2 28 -47z"/> </g> </svg>